<svg width="33" height="23" viewBox="0 0 33 23" fill="none" xmlns="http://www.w3.org/2000/svg">
<g clip-path="url(#clip0_291_15)">
<path d="M29 22.5H3.6C1.6 22.5 0 20.9 0 18.9V3.6C0 1.6 1.6 0 3.6 0H29C31 0 32.6 1.6 32.6 3.6V19C32.6 20.9 31 22.5 29 22.5Z" fill="#96BEE1"/>
<path d="M14.9 15.5C14.6 15.3 14.2 15.1 14.2 14.6C14.2 13.9 14.2 13.7 14.2 13.7C14.2 13.7 14.8 13.2 15.4 11.8C15.6 11.8 16 11.4 16.1 10.9C16.2 10.4 16.1 9.79995 15.9 9.69995C16 8.99995 16.1 8.39995 16.1 7.49995C16.1 5.39995 14.5 4.19995 12.3 4.19995C10.3 4.19995 8.5 5.29995 8.5 7.49995C8.5 8.39995 8.6 8.99995 8.7 9.69995C8.5 9.79995 8.4 10.5 8.6 11C8.7 11.5 9.1 11.9 9.3 11.9C9.8 13.3 10.5 13.8 10.5 13.8C10.5 13.8 10.5 14 10.5 14.7C10.5 15.1 10.1 15.4 9.8 15.5C7.2 16 6 17 6 17L8.6 19.3L12.8 19.8L17 18.8L18.6 17.2C18.7 17.2 17.5 16 14.9 15.5Z" fill="white"/>
<path d="M12.2001 20.4C7.2001 20.4 3.1001 16.3 3.1001 11.3C3.1001 6.29995 7.2001 2.19995 12.2001 2.19995C17.2001 2.19995 21.3001 6.29995 21.3001 11.3C21.3001 16.3 17.3001 20.4 12.2001 20.4ZM12.2001 3.09995C7.7001 3.09995 4.1001 6.69995 4.1001 11.2C4.1001 15.7 7.7001 19.2999 12.2001 19.2999C16.7001 19.2999 20.3001 15.7 20.3001 11.2C20.4001 6.79995 16.7001 3.09995 12.2001 3.09995Z" fill="white"/>
<path d="M27.6 17.3998H20C19.6 17.3998 19.2 17.0998 19.2 16.5998V5.79976C19.2 5.39976 19.5 4.99976 20 4.99976H27.6C28 4.99976 28.4 5.29976 28.4 5.79976V16.6998C28.4 17.0998 28 17.3998 27.6 17.3998Z" fill="#96BEE1"/>
<path d="M27.6 17.8999H20C19.3 17.8999 18.8 17.3999 18.8 16.6999V5.79985C18.8 5.09985 19.3 4.59985 20 4.59985H27.6C28.3 4.59985 28.8 5.09985 28.8 5.79985V16.6999C28.8 17.2999 28.3 17.8999 27.6 17.8999ZM20 5.49985C19.8 5.49985 19.7001 5.59985 19.7001 5.79985V16.6999C19.7001 16.8999 19.8 16.9999 20 16.9999H27.6C27.8 16.9999 27.9 16.8999 27.9 16.6999V5.79985C27.9 5.59985 27.8 5.49985 27.6 5.49985H20Z" fill="white"/>
<path d="M26.5 10.2998H21.2C20.9 10.2998 20.7 10.0998 20.7 9.7998C20.7 9.4998 20.9 9.2998 21.2 9.2998H26.5C26.8 9.2998 27 9.4998 27 9.7998C26.9 10.0998 26.7 10.2998 26.5 10.2998Z" fill="white"/>
<path d="M26.5 7.7998H21.2C20.9 7.7998 20.7 7.5998 20.7 7.2998C20.7 6.9998 20.9 6.7998 21.2 6.7998H26.5C26.8 6.7998 27 6.9998 27 7.2998C26.9 7.5998 26.7 7.7998 26.5 7.7998Z" fill="white"/>
<path d="M26.5 12.8999H21.2C20.9 12.8999 20.7 12.6999 20.7 12.3999C20.7 12.0999 20.9 11.8999 21.2 11.8999H26.5C26.8 11.8999 27 12.0999 27 12.3999C27 12.6999 26.7 12.8999 26.5 12.8999Z" fill="white"/>
<path d="M26.5 15.3999H21.2C20.9 15.3999 20.7 15.1999 20.7 14.8999C20.7 14.5999 20.9 14.3999 21.2 14.3999H26.5C26.8 14.3999 27 14.5999 27 14.8999C27 15.1999 26.7 15.3999 26.5 15.3999Z" fill="white"/>
</g>
<defs>
<clipPath id="clip0_291_15">
<rect width="32.6" height="22.5" fill="white"/>
</clipPath>
</defs>
</svg>
