<svg width="210" height="114" viewBox="0 0 210 114" fill="none" xmlns="http://www.w3.org/2000/svg">
<g clip-path="url(#clip0_297_1489)">
<path d="M6.5625 22.2521C4.70312 22.2521 3.28125 21.704 2.29688 20.7175C1.3125 19.7309 0.875 18.1963 0.875 16.2232V10.304C0.875 8.33092 1.3125 6.7963 2.29688 5.80977C3.28125 4.82323 4.70312 4.38477 6.5625 4.38477C8.53125 4.38477 9.95312 4.82323 10.9375 5.91938C11.9219 6.90592 12.3594 8.44054 12.3594 10.4136V16.4425C12.3594 18.4155 11.9219 19.8405 10.9375 20.9367C9.95312 21.8136 8.53125 22.2521 6.5625 22.2521ZM6.5625 19.6213C7.4375 19.6213 8.20312 19.2925 8.64062 18.7444C9.07812 18.1963 9.29688 17.3194 9.29688 16.2232V10.5232C9.29688 9.31746 9.07812 8.44053 8.64062 7.89246C8.20312 7.34438 7.54688 7.01553 6.5625 7.01553C5.6875 7.01553 5.03125 7.34438 4.48438 7.89246C3.9375 8.44053 3.82812 9.31746 3.82812 10.5232V16.2232C3.82812 17.429 4.04688 18.1963 4.48438 18.7444C5.03125 19.2925 5.6875 19.6213 6.5625 19.6213Z" fill="#96BEE1"/>
<path d="M14.875 22.0328C14.6563 22.0328 14.6562 21.9232 14.6562 21.704V4.82323C14.6562 4.604 14.7656 4.49438 14.875 4.49438H18.8125C20.7813 4.49438 22.0938 4.93285 23.0781 5.91938C24.0625 6.90592 24.3906 8.33092 24.3906 10.1944C24.3906 12.0578 23.9531 13.4828 22.9688 14.3598C22.0938 15.3463 20.6719 15.7848 18.8125 15.7848H17.5V21.704C17.5 21.9232 17.3906 22.0328 17.2813 22.0328H14.875ZM17.5 13.2636H18.7031C19.5781 13.2636 20.2344 13.0444 20.6719 12.4963C21.1094 12.0578 21.3281 11.2905 21.3281 10.304C21.3281 9.20785 21.1094 8.44054 20.6719 8.00208C20.2344 7.56362 19.5781 7.23477 18.7031 7.23477H17.5V13.2636Z" fill="#96BEE1"/>
<path d="M26.5781 22.0328C26.3594 22.0328 26.3594 21.9232 26.3594 21.704V4.82323C26.3594 4.604 26.4687 4.49438 26.5781 4.49438H35C35.2188 4.49438 35.2188 4.604 35.2188 4.82323V6.90592C35.2188 7.12515 35.1094 7.23477 35 7.23477H29.4219V11.8386H34.5625C34.7812 11.8386 34.7812 11.9482 34.7812 12.1675V14.2502C34.7812 14.4694 34.6719 14.579 34.5625 14.579H29.4219V19.5117H35C35.2188 19.5117 35.2188 19.6213 35.2188 19.8405V21.9232C35.2188 22.1425 35.1094 22.2521 35 22.2521H26.5781V22.0328Z" fill="#96BEE1"/>
<path d="M37.625 22.0328C37.4063 22.0328 37.4062 21.9232 37.4062 21.704V4.82323C37.4062 4.604 37.5156 4.49438 37.625 4.49438H40.0312C40.25 4.49438 40.25 4.604 40.25 4.82323V11.729H45.5V4.82323C45.5 4.604 45.6094 4.49438 45.8281 4.49438H48.2344C48.4531 4.49438 48.5625 4.604 48.5625 4.82323V21.704C48.5625 21.9232 48.4531 22.0328 48.2344 22.0328H45.9375C45.7187 22.0328 45.6094 21.9232 45.6094 21.704V14.3598H40.3594V21.704C40.3594 21.9232 40.25 22.0328 40.1406 22.0328H37.625Z" fill="#96BEE1"/>
<path d="M51.4063 22.0328C51.1875 22.0328 51.1875 21.9232 51.1875 21.704V4.82323C51.1875 4.604 51.2969 4.49438 51.5156 4.49438H59.7187C59.9375 4.49438 59.9375 4.604 59.9375 4.82323V6.90592C59.9375 7.12515 59.8281 7.23477 59.6094 7.23477H54.1406V11.1809H55.7813C57.75 11.1809 59.1719 11.6194 60.0469 12.4963C60.9219 13.3732 61.3594 14.6886 61.3594 16.4425C61.3594 18.3059 60.9219 19.7309 59.9375 20.7175C59.0625 21.704 57.5312 22.1425 55.5625 22.1425H51.4063V22.0328ZM54.1406 19.5117H55.6719C56.6563 19.5117 57.3125 19.2925 57.75 18.7444C58.1875 18.3059 58.4063 17.429 58.4063 16.4425C58.4063 15.4559 58.1875 14.6886 57.75 14.2502C57.3125 13.8117 56.6563 13.5925 55.6719 13.5925H54.1406V19.5117Z" fill="#96BEE1"/>
<path d="M64.4219 22.0326C64.3125 22.0326 64.3125 22.0326 64.2031 21.923C64.2031 21.8134 64.2031 21.8134 64.2031 21.7038L66.3906 16.1134L62.0156 4.93261C62.0156 4.82299 62.0156 4.71338 62.0156 4.71338C62.0156 4.71338 62.125 4.60376 62.2344 4.60376H65.0781C65.1875 4.60376 65.2969 4.71338 65.4062 4.82299L67.1563 9.97491C67.2656 10.523 67.4844 10.9615 67.5937 11.3999C67.7031 11.8384 67.9219 12.3865 68.0312 12.9345C68.1406 12.3865 68.3594 11.948 68.4687 11.3999C68.5781 10.9615 68.7969 10.4134 68.9062 9.97491L70.7656 4.82299C70.7656 4.71338 70.875 4.60376 71.0937 4.60376H73.9375C74.0469 4.60376 74.0469 4.60376 74.1563 4.71338C74.2656 4.82299 74.1563 4.82299 74.1563 4.93261L67.375 21.923C67.375 22.0326 67.2656 22.1422 67.0469 22.1422H64.4219V22.0326Z" fill="#96BEE1"/>
<path d="M76.0156 22.0328C75.7969 22.0328 75.7969 21.9232 75.7969 21.704V4.82323C75.7969 4.604 75.9062 4.49438 76.0156 4.49438H79.9531C81.9219 4.49438 83.2344 4.93285 84.2187 5.91938C85.2031 6.90592 85.5312 8.33092 85.5312 10.1944C85.5312 12.0578 85.0937 13.4828 84.1094 14.3598C83.2344 15.3463 81.8125 15.7848 79.9531 15.7848H78.6406V21.704C78.6406 21.9232 78.5312 22.0328 78.4219 22.0328H76.0156ZM78.6406 13.2636H79.8437C80.7187 13.2636 81.375 13.0444 81.8125 12.4963C82.25 12.0578 82.4687 11.2905 82.4687 10.304C82.4687 9.20785 82.25 8.44054 81.8125 8.00208C81.375 7.56362 80.7187 7.23477 79.8437 7.23477H78.6406V13.2636Z" fill="#96BEE1"/>
<path d="M87.7187 22.0328C87.5 22.0328 87.5 21.9232 87.5 21.704V4.82323C87.5 4.604 87.6094 4.49438 87.7187 4.49438H95.375C95.5937 4.49438 95.5938 4.604 95.5938 4.82323V6.90592C95.5938 7.12515 95.4844 7.23477 95.375 7.23477H90.4531V21.704C90.4531 21.9232 90.3438 22.0328 90.2344 22.0328H87.7187Z" fill="#96BEE1"/>
<path d="M102.812 22.2521C100.953 22.2521 99.5312 21.704 98.5469 20.7175C97.5625 19.7309 97.125 18.1963 97.125 16.1136V10.5232C97.125 8.44054 97.5625 7.01553 98.5469 5.91938C99.5312 4.82323 100.953 4.38477 102.812 4.38477C104.125 4.38477 105.219 4.604 106.094 5.15207C106.969 5.70015 107.625 6.35784 108.062 7.23477C108.5 8.11169 108.609 9.20784 108.391 10.5232C108.391 10.7425 108.281 10.8521 108.172 10.8521H105.766C105.547 10.8521 105.437 10.7425 105.547 10.5232C105.656 9.42707 105.437 8.55015 105 8.00207C104.562 7.454 103.906 7.12515 102.922 7.12515C102.047 7.12515 101.281 7.454 100.844 8.00207C100.406 8.55015 100.187 9.42707 100.187 10.6328V16.1136C100.187 17.3194 100.406 18.1963 100.844 18.854C101.281 19.4021 102.047 19.7309 102.922 19.7309C103.906 19.7309 104.562 19.4021 105 18.7444C105.437 18.0867 105.547 17.3194 105.547 16.2232C105.547 16.004 105.656 15.8944 105.766 15.8944H108.172C108.391 15.8944 108.5 16.004 108.5 16.2232C108.609 18.0867 108.281 19.6213 107.297 20.7175C106.203 21.704 104.781 22.2521 102.812 22.2521Z" fill="#96BEE1"/>
<path d="M110.797 22.0328C110.578 22.0328 110.578 21.9232 110.578 21.704V4.82323C110.578 4.604 110.688 4.49438 110.797 4.49438H113.203C113.422 4.49438 113.422 4.604 113.422 4.82323V11.9482H114.625L118.234 4.71362C118.234 4.604 118.344 4.604 118.344 4.604C118.453 4.604 118.453 4.604 118.563 4.604H121.188C121.297 4.604 121.406 4.604 121.406 4.71362C121.406 4.82323 121.406 4.82323 121.406 4.93285L117.25 12.9348L121.844 21.704C121.844 21.8136 121.953 21.9232 121.844 21.9232C121.844 22.0328 121.734 22.0328 121.625 22.0328H118.781C118.672 22.0328 118.672 22.0328 118.563 22.0328L118.453 21.9232L114.625 14.6886H113.312V21.8136C113.312 22.0328 113.203 22.1425 113.094 22.1425H110.797V22.0328Z" fill="#96BEE1"/>
<path d="M123.922 22.0328C123.703 22.0328 123.703 21.9232 123.703 21.704V4.82323C123.703 4.604 123.813 4.49438 123.922 4.49438H126.219C126.438 4.49438 126.438 4.604 126.438 4.82323V11.8386C126.438 12.4963 126.438 13.154 126.438 13.9213C126.438 14.6886 126.328 15.4559 126.328 16.1136C126.328 16.7713 126.219 17.429 126.219 17.8675C126.328 17.429 126.547 16.8809 126.766 16.3328C126.984 15.7848 127.203 15.1271 127.531 14.3598C127.859 13.5925 128.188 12.8252 128.516 11.8386L131.469 4.82323C131.469 4.71362 131.578 4.604 131.797 4.604H134.531C134.75 4.604 134.859 4.71362 134.859 4.93285V21.8136C134.859 22.0328 134.75 22.1425 134.531 22.1425H132.234C132.016 22.1425 131.906 22.0328 131.906 21.8136V15.2367C131.906 14.579 131.906 13.9213 132.016 13.0444C132.016 12.2771 132.125 11.5098 132.125 10.7425C132.125 9.97515 132.234 9.31746 132.234 8.76938H132.125C132.016 9.31746 131.797 9.86554 131.578 10.4136C131.359 10.9617 131.141 11.729 130.812 12.4963C130.484 13.2636 130.156 14.1405 129.719 15.2367L126.875 21.9232C126.875 22.0328 126.766 22.1425 126.547 22.1425H123.922V22.0328Z" fill="#96BEE1"/>
<path d="M137.594 22.0328C137.375 22.0328 137.375 21.9232 137.375 21.704V4.8232C137.375 4.60396 137.484 4.49435 137.594 4.49435H139.891C140.109 4.49435 140.109 4.60396 140.109 4.8232V11.8386C140.109 12.4963 140.109 13.154 140.109 13.9213C140.109 14.6886 140 15.4559 140 16.1136C140 16.7713 139.891 17.429 139.891 17.8674C140 17.429 140.219 16.8809 140.437 16.3328C140.656 15.7847 140.875 15.127 141.203 14.3597C141.531 13.5924 141.859 12.8251 142.188 11.8386L145.141 4.8232C145.141 4.71358 145.25 4.60396 145.469 4.60396H148.203C148.422 4.60396 148.531 4.71358 148.531 4.93281V21.8136C148.531 22.0328 148.422 22.1424 148.203 22.1424H145.906C145.687 22.1424 145.578 22.0328 145.578 21.8136V15.2367C145.578 14.579 145.578 13.9213 145.687 13.0443C145.687 12.277 145.797 11.5097 145.797 10.7424C145.797 9.97512 145.906 9.31743 145.906 8.76935H145.797C145.688 9.31743 145.469 9.8655 145.25 10.4136C145.031 10.9617 144.813 11.729 144.484 12.4963C144.156 13.2636 143.828 14.1405 143.391 15.2367L140.547 21.9232C140.547 22.0328 140.437 22.1424 140.219 22.1424H137.594V22.0328ZM142.953 3.17896C142.297 3.17896 141.641 3.06935 141.203 2.85012C140.656 2.63089 140.328 2.41166 140.109 2.19243C140 2.08281 140 1.9732 140 1.86358V0.219349C140 0.000118384 140.109 -0.109497 140.328 0.109734C140.656 0.328965 141.094 0.548195 141.531 0.767426C141.969 0.986657 142.516 1.09627 143.063 1.09627C143.609 1.09627 144.156 0.986657 144.594 0.767426C145.031 0.548195 145.469 0.328965 145.797 0.109734C146.016 0.000118393 146.125 0.000118384 146.125 0.219349V1.75396C146.125 1.86358 146.125 1.9732 146.016 2.08281C145.797 2.30204 145.359 2.52127 144.922 2.7405C144.266 3.06935 143.609 3.17896 142.953 3.17896Z" fill="#96BEE1"/>
<path d="M1.42187 48.7789C1.20312 48.7789 1.20312 48.6693 1.20312 48.4501V31.5693C1.20312 31.3501 1.3125 31.2405 1.42187 31.2405H9.07813C9.29688 31.2405 9.29688 31.3501 9.29688 31.5693V33.652C9.29688 33.8712 9.1875 33.9809 9.07813 33.9809H4.15625V48.4501C4.15625 48.6693 4.04688 48.7789 3.9375 48.7789H1.42187Z" fill="#96BEE1"/>
<path d="M16.0781 48.9982C14.2187 48.9982 12.7969 48.4501 11.8125 47.4635C10.8281 46.477 10.3906 44.9424 10.3906 42.9693V36.9405C10.3906 34.9674 10.8281 33.4328 11.8125 32.4462C12.7969 31.4597 14.2187 30.9116 16.0781 30.9116C17.9375 30.9116 19.4688 31.4597 20.3438 32.4462C21.3281 33.4328 21.7656 34.9674 21.7656 36.9405V42.9693C21.7656 44.9424 21.3281 46.3674 20.3438 47.4635C19.4688 48.5597 17.9375 48.9982 16.0781 48.9982ZM16.0781 46.3674C16.9531 46.3674 17.7188 46.0385 18.1563 45.4905C18.5938 44.9424 18.8125 44.0655 18.8125 42.9693V37.2693C18.8125 36.0635 18.5938 35.1866 18.1563 34.6385C17.7188 34.0905 16.9531 33.7616 16.0781 33.7616C15.2031 33.7616 14.5469 34.0905 14 34.6385C13.4531 35.1866 13.3437 36.0635 13.3437 37.2693V42.9693C13.3437 44.1751 13.5625 44.9424 14 45.4905C14.5469 46.0385 15.2031 46.3674 16.0781 46.3674Z" fill="#96BEE1"/>
<path d="M29.2031 48.9979C27.3438 48.9979 25.9219 48.4498 24.9375 47.4633C23.9531 46.4768 23.5156 44.9422 23.5156 42.8595V37.2691C23.5156 35.1864 23.9531 33.7614 24.9375 32.6652C25.9219 31.6787 27.3438 31.1306 29.2031 31.1306C30.5156 31.1306 31.6094 31.3498 32.4844 31.8979C33.3594 32.446 34.0156 33.1037 34.4531 33.9806C34.8906 34.8575 35 35.9537 34.7812 37.2691C34.7812 37.4883 34.6719 37.5979 34.5625 37.5979H32.1562C31.9375 37.5979 31.8281 37.4883 31.9375 37.2691C32.0469 36.1729 31.8281 35.296 31.3906 34.7479C30.9531 34.1998 30.2969 33.871 29.3125 33.871C28.4375 33.871 27.6719 34.1998 27.2344 34.7479C26.7969 35.296 26.5781 36.1729 26.5781 37.3787V42.8595C26.5781 44.0652 26.7969 44.9422 27.2344 45.5998C27.6719 46.1479 28.4375 46.4768 29.3125 46.4768C30.2969 46.4768 30.9531 46.1479 31.3906 45.4902C31.8281 44.8325 31.9375 44.0652 31.9375 42.9691C31.9375 42.7498 32.0469 42.6402 32.1562 42.6402H34.5625C34.7812 42.6402 34.8906 42.7498 34.8906 42.9691C35 44.8325 34.6719 46.3672 33.6875 47.4633C32.5937 48.4498 31.1719 48.9979 29.2031 48.9979Z" fill="#96BEE1"/>
<path d="M37.8437 48.7789C37.7344 48.7789 37.7344 48.7789 37.625 48.6693C37.625 48.5597 37.625 48.5597 37.625 48.4501L39.8125 42.8597L35.4375 31.6789C35.4375 31.5693 35.4375 31.4597 35.4375 31.4597C35.4375 31.4597 35.5469 31.3501 35.6562 31.3501H38.5C38.6094 31.3501 38.7187 31.4597 38.8281 31.5693L40.5781 36.7213C40.6875 37.2693 40.9062 37.7078 41.0156 38.1463C41.125 38.5847 41.3438 39.1328 41.4531 39.6809C41.5625 39.1328 41.7812 38.6943 41.8906 38.1463C42 37.7078 42.2187 37.1597 42.3281 36.7213L44.1875 31.5693C44.1875 31.4597 44.2969 31.3501 44.5156 31.3501H47.3594C47.4687 31.3501 47.4687 31.3501 47.5781 31.4597C47.6875 31.5693 47.5781 31.5693 47.5781 31.6789L40.9062 48.6693C40.9062 48.7789 40.7969 48.8886 40.5781 48.8886H37.8437V48.7789Z" fill="#96BEE1"/>
<path d="M47.25 52.5059C47.0312 52.5059 46.9219 52.3962 46.9219 52.177V46.3674C46.9219 46.1482 47.0312 46.0386 47.25 46.0386H60.0469C60.2656 46.0386 60.2656 46.1482 60.2656 46.3674V52.177C60.2656 52.3962 60.1562 52.5059 60.0469 52.5059H57.6406C57.5312 52.5059 57.5312 52.5059 57.4219 52.3962C57.3125 52.2866 57.3125 52.2866 57.3125 52.177V48.7789H49.875V52.177C49.875 52.3962 49.7656 52.5059 49.5469 52.5059H47.25ZM49.4375 47.902L47.6875 46.477C48.0156 46.3674 48.2344 46.1482 48.3437 45.6001C48.4531 45.1616 48.5625 44.3943 48.6719 43.5174L49.2187 31.5693C49.2187 31.3501 49.3281 31.2405 49.4375 31.2405H58.4062C58.5156 31.2405 58.625 31.3501 58.625 31.5693V48.3405C58.625 48.5597 58.5156 48.6693 58.4062 48.6693H55.8906C55.6719 48.6693 55.6719 48.5597 55.6719 48.3405V33.9809H51.9531L51.5156 43.4078C51.5156 44.2847 51.4062 45.052 51.1875 45.6001C50.9687 46.1482 50.75 46.6962 50.4219 47.0251C50.2031 47.4636 49.875 47.6828 49.4375 47.902Z" fill="#96BEE1"/>
<path d="M61.1406 48.7789C60.9219 48.7789 60.9219 48.6693 60.9219 48.4501L65.2969 31.4597C65.2969 31.3501 65.4062 31.2405 65.625 31.2405H68.9062C69.0156 31.2405 69.2344 31.3501 69.2344 31.4597L73.6094 48.4501C73.6094 48.6693 73.6094 48.7789 73.3906 48.7789H70.6562C70.5469 48.7789 70.4375 48.6693 70.3281 48.5597L67.9219 37.7078C67.8125 37.0501 67.7031 36.502 67.4844 35.9539C67.2656 35.4059 67.2656 34.7482 67.1563 34.2001C67.0469 34.7482 66.9375 35.4059 66.8281 35.9539C66.7187 36.502 66.6094 37.1597 66.3906 37.7078L63.9844 48.5597C63.9844 48.6693 63.875 48.7789 63.6562 48.7789H61.1406ZM64.4219 45.052L64.9688 42.5309H69.5625L70.1094 45.052H64.4219Z" fill="#96BEE1"/>
<path d="M75.1406 48.7789C74.9219 48.7789 74.9219 48.6693 74.9219 48.4501V31.5693C74.9219 31.3501 75.0312 31.2405 75.1406 31.2405H79.0781C81.0469 31.2405 82.3594 31.6789 83.3437 32.6655C84.3281 33.652 84.6563 35.077 84.6563 36.9405C84.6563 38.8039 84.2187 40.2289 83.2344 41.1059C82.3594 42.0924 80.9375 42.5309 79.0781 42.5309H77.7656V48.4501C77.7656 48.6693 77.6563 48.7789 77.5469 48.7789H75.1406ZM77.875 40.0097H79.0781C79.9531 40.0097 80.6094 39.7905 81.0469 39.2424C81.4844 38.8039 81.7031 38.0366 81.7031 37.0501C81.7031 35.9539 81.4844 35.1866 81.0469 34.7482C80.6094 34.3097 79.9531 33.9809 79.0781 33.9809H77.875V40.0097Z" fill="#96BEE1"/>
<path d="M91.7656 48.9979C89.9063 48.9979 88.4844 48.4498 87.5 47.4633C86.5156 46.4768 86.0781 44.9422 86.0781 42.8595V37.2691C86.0781 35.1864 86.5156 33.7614 87.5 32.6652C88.4844 31.6787 89.9063 31.1306 91.7656 31.1306C93.0781 31.1306 94.1719 31.3498 95.0469 31.8979C95.9219 32.446 96.5781 33.1037 97.0156 33.9806C97.4531 34.8575 97.5625 35.9537 97.3438 37.2691C97.3438 37.4883 97.2344 37.5979 97.125 37.5979H94.7188C94.5 37.5979 94.3906 37.4883 94.5 37.2691C94.6094 36.1729 94.3906 35.296 93.9531 34.7479C93.5156 34.1998 92.8594 33.871 91.875 33.871C91 33.871 90.2344 34.1998 89.7969 34.7479C89.3594 35.296 89.1406 36.1729 89.1406 37.3787V42.8595C89.1406 44.0652 89.3594 44.9422 89.7969 45.5998C90.2344 46.1479 91 46.4768 91.875 46.4768C92.8594 46.4768 93.5156 46.1479 93.9531 45.4902C94.3906 44.8325 94.5 44.0652 94.5 42.9691C94.5 42.7498 94.6094 42.6402 94.7188 42.6402H97.125C97.3438 42.6402 97.4531 42.7498 97.4531 42.9691C97.5625 44.8325 97.2344 46.3672 96.25 47.4633C95.1563 48.4498 93.7344 48.9979 91.7656 48.9979Z" fill="#96BEE1"/>
<path d="M102.594 48.7789C102.375 48.7789 102.375 48.6693 102.375 48.4501V33.9809H98.875C98.6563 33.9809 98.6562 33.8712 98.6562 33.652V31.5693C98.6562 31.3501 98.7656 31.2405 98.875 31.2405H108.828C109.047 31.2405 109.047 31.3501 109.047 31.5693V33.652C109.047 33.8712 108.938 33.9809 108.828 33.9809H105.328V48.4501C105.328 48.6693 105.219 48.7789 105.109 48.7789H102.594Z" fill="#96BEE1"/>
<path d="M110.797 48.7789C110.578 48.7789 110.469 48.6693 110.469 48.4501V31.5693C110.469 31.3501 110.578 31.2405 110.797 31.2405H114.953C116.703 31.2405 118.125 31.5693 119 32.3366C119.875 33.1039 120.312 34.0905 120.312 35.6251C120.312 36.6116 120.094 37.3789 119.766 38.0366C119.438 38.6943 118.781 39.1328 118.016 39.5712C119 39.7905 119.766 40.3386 120.203 40.9962C120.75 41.6539 120.969 42.6405 120.969 43.7366C120.969 45.4905 120.531 46.6962 119.547 47.5732C118.563 48.3405 117.141 48.7789 115.172 48.7789H110.797ZM113.531 38.6943H115.062C115.828 38.6943 116.484 38.4751 116.813 38.0366C117.141 37.5982 117.359 37.0501 117.359 36.1732C117.359 35.4059 117.141 34.7482 116.813 34.4193C116.375 34.0905 115.828 33.8712 114.953 33.8712H113.641V38.6943H113.531ZM113.531 46.2578H115.172C116.156 46.2578 116.812 46.0386 117.25 45.6001C117.687 45.1616 117.906 44.5039 117.906 43.5174C117.906 42.6405 117.687 41.9828 117.25 41.5443C116.812 41.1059 116.156 40.8866 115.172 40.8866H113.531V46.2578Z" fill="#96BEE1"/>
<path d="M122.719 48.7789C122.5 48.7789 122.5 48.6693 122.5 48.4501V31.5693C122.5 31.3501 122.609 31.2405 122.719 31.2405H131.031C131.25 31.2405 131.25 31.3501 131.25 31.5693V33.652C131.25 33.8712 131.141 33.9809 131.031 33.9809H125.453V38.5847H130.594C130.813 38.5847 130.812 38.6943 130.812 38.9136V40.8866C130.812 41.1059 130.703 41.2155 130.594 41.2155H125.453V46.1482H131.031C131.25 46.1482 131.25 46.2578 131.25 46.477V48.5597C131.25 48.7789 131.141 48.8886 131.031 48.8886H122.719V48.7789Z" fill="#96BEE1"/>
<path d="M133.437 48.7789C133.219 48.7789 133.219 48.6693 133.219 48.4501V31.5693C133.219 31.3501 133.328 31.2405 133.437 31.2405H135.844C136.062 31.2405 136.062 31.3501 136.062 31.5693V38.4751H141.312V31.5693C141.312 31.3501 141.422 31.2405 141.641 31.2405H144.047C144.266 31.2405 144.375 31.3501 144.375 31.5693V48.4501C144.375 48.6693 144.266 48.7789 144.047 48.7789H141.641C141.422 48.7789 141.312 48.6693 141.312 48.4501V41.1059H136.062V48.4501C136.062 48.6693 135.953 48.7789 135.844 48.7789H133.437Z" fill="#96BEE1"/>
<path d="M146.781 48.7789C146.562 48.7789 146.562 48.6693 146.562 48.4501V31.5693C146.562 31.3501 146.672 31.2405 146.781 31.2405H149.187C149.406 31.2405 149.406 31.3501 149.406 31.5693V38.4751H154.656V31.5693C154.656 31.3501 154.766 31.2405 154.984 31.2405H157.391C157.609 31.2405 157.719 31.3501 157.719 31.5693V48.4501C157.719 48.6693 157.609 48.7789 157.391 48.7789H154.984C154.766 48.7789 154.656 48.6693 154.656 48.4501V41.1059H149.406V48.4501C149.406 48.6693 149.297 48.7789 149.187 48.7789H146.781Z" fill="#96BEE1"/>
<path d="M160.125 48.7789C159.906 48.7789 159.906 48.6693 159.906 48.4501V31.5693C159.906 31.3501 160.016 31.2405 160.125 31.2405H162.531C162.75 31.2405 162.75 31.3501 162.75 31.5693V37.4886H164.172C166.141 37.4886 167.563 37.927 168.438 38.9136C169.422 39.7905 169.859 41.2155 169.859 42.9693C169.859 44.8328 169.422 46.2578 168.438 47.3539C167.563 48.3405 166.031 48.8886 164.063 48.8886H160.125V48.7789ZM162.859 46.1482H164.172C165.156 46.1482 165.922 45.9289 166.359 45.3809C166.797 44.8328 167.016 44.0655 167.016 42.9693C167.016 41.8732 166.797 41.2155 166.359 40.777C165.922 40.3386 165.156 40.1193 164.172 40.1193H162.859V46.1482ZM172.484 48.7789C172.266 48.7789 172.266 48.6693 172.266 48.4501V31.5693C172.266 31.3501 172.375 31.2405 172.484 31.2405H174.891C175.109 31.2405 175.109 31.3501 175.109 31.5693V48.4501C175.109 48.6693 175 48.7789 174.891 48.7789H172.484Z" fill="#96BEE1"/>
<path d="M177.516 48.7789C177.297 48.7789 177.297 48.6693 177.297 48.4501V31.5693C177.297 31.3501 177.406 31.2404 177.516 31.2404H179.812C180.031 31.2404 180.031 31.3501 180.031 31.5693V38.5847C180.031 39.2424 180.031 39.9001 180.031 40.6674C180.031 41.4347 179.922 42.202 179.922 42.8597C179.922 43.5174 179.812 44.1751 179.812 44.6135C179.922 44.1751 180.141 43.627 180.359 43.0789C180.578 42.5308 180.797 41.8731 181.125 41.1058C181.453 40.3385 181.781 39.5712 182.109 38.5847L185.062 31.5693C185.062 31.4597 185.172 31.3501 185.391 31.3501H188.125C188.344 31.3501 188.453 31.4597 188.453 31.6789V48.5597C188.453 48.7789 188.344 48.8885 188.125 48.8885H185.828C185.609 48.8885 185.5 48.7789 185.5 48.5597V41.9827C185.5 41.3251 185.5 40.6674 185.609 39.7904C185.609 39.0231 185.719 38.2558 185.719 37.4885C185.719 36.7212 185.828 36.0635 185.828 35.5154H185.719C185.609 36.0635 185.391 36.6116 185.172 37.1597C184.953 37.7078 184.734 38.4751 184.406 39.2424C184.078 40.0097 183.75 40.8866 183.312 41.9827L180.469 48.6693C180.469 48.7789 180.359 48.8885 180.141 48.8885H177.516V48.7789ZM182.875 29.8154C182.219 29.8154 181.562 29.7058 181.125 29.4866C180.578 29.2674 180.25 29.0481 180.031 28.8289C179.922 28.7193 179.922 28.6097 179.922 28.5001V26.9654C179.922 26.7462 180.031 26.6366 180.25 26.8558C180.578 27.0751 181.016 27.2943 181.453 27.5135C181.891 27.7328 182.437 27.8424 182.984 27.8424C183.531 27.8424 184.078 27.7328 184.516 27.5135C184.953 27.2943 185.391 27.0751 185.719 26.8558C185.937 26.7462 186.047 26.7462 186.047 26.9654V28.5001C186.047 28.6097 186.047 28.7193 185.937 28.8289C185.719 29.0481 185.281 29.2674 184.844 29.4866C184.078 29.7058 183.531 29.8154 182.875 29.8154Z" fill="#96BEE1"/>
<path d="M1.09375 75.525C0.875 75.525 0.875 75.4154 0.875 75.1962L1.09375 58.3154C1.09375 58.0962 1.20312 58.0962 1.42187 58.0962H4.59375C4.70312 58.0962 4.8125 58.2058 4.92188 58.3154L8.20312 67.7423L11.375 58.3154C11.375 58.2058 11.4844 58.0962 11.7031 58.0962H14.875C15.0938 58.0962 15.0938 58.2058 15.0938 58.425L15.3125 75.3058C15.3125 75.525 15.2031 75.6347 14.9844 75.6347H12.5781C12.3594 75.6347 12.3594 75.525 12.3594 75.3058L12.25 66.7558C12.25 65.9885 12.25 65.2212 12.25 64.5635C12.25 63.9058 12.3594 63.1385 12.3594 62.4808C12.1406 63.1385 12.0312 63.6866 11.8125 64.3443C11.5938 65.002 11.375 65.55 11.1562 66.2077L8.53125 73.3327C8.53125 73.4423 8.42188 73.552 8.20312 73.552H7.98438C7.875 73.552 7.76562 73.4423 7.76562 73.3327L5.14062 66.2077C4.92188 65.6597 4.70312 65.002 4.48438 64.4539C4.26562 63.7962 4.04688 63.2481 3.9375 62.7C3.9375 63.3577 4.04688 64.0154 4.04688 64.6731C4.04688 65.3308 4.04688 66.0981 4.04688 66.8654L3.9375 75.4154C3.9375 75.6347 3.82813 75.7443 3.71875 75.7443H1.09375V75.525Z" fill="#96BEE1"/>
<path d="M18.2656 75.525C18.0469 75.525 18.0469 75.4154 18.0469 75.1962V58.3154C18.0469 58.0962 18.1563 57.9866 18.2656 57.9866H26.5781C26.7969 57.9866 26.7969 58.0962 26.7969 58.3154V60.3981C26.7969 60.6173 26.6875 60.727 26.5781 60.727H21V65.3308H26.1406C26.3594 65.3308 26.3594 65.4404 26.3594 65.6596V67.6327C26.3594 67.852 26.25 67.9616 26.1406 67.9616H21V72.8943H26.5781C26.7969 72.8943 26.7969 73.0039 26.7969 73.2231V75.3058C26.7969 75.525 26.6875 75.6346 26.5781 75.6346H18.2656V75.525Z" fill="#96BEE1"/>
<path d="M29.2031 79.252C28.9844 79.252 28.875 79.1423 28.875 78.9231V73.1135C28.875 72.8943 28.9844 72.7846 29.2031 72.7846H42C42.2188 72.7846 42.2187 72.8943 42.2187 73.1135V78.9231C42.2187 79.1423 42.1094 79.252 42 79.252H39.5938C39.4844 79.252 39.4844 79.252 39.375 79.1423C39.2656 79.0327 39.375 79.0327 39.375 78.9231V75.525H31.9375V78.9231C31.9375 79.1423 31.8281 79.252 31.6094 79.252H29.2031ZM31.3906 74.6481L29.6406 73.2231C29.9688 73.1135 30.1875 72.8943 30.2969 72.3462C30.4063 71.9077 30.5156 71.1404 30.625 70.2635L31.1719 58.3154C31.1719 58.0962 31.2813 57.9866 31.3906 57.9866H40.4688C40.5781 57.9866 40.6875 58.0962 40.6875 58.3154V75.0866C40.6875 75.3058 40.5781 75.4154 40.4688 75.4154H37.9531C37.7344 75.4154 37.7344 75.3058 37.7344 75.0866V60.727H34.0156L33.6875 70.1539C33.6875 71.0308 33.5781 71.7981 33.3594 72.3462C33.1406 72.8943 32.9219 73.4423 32.5937 73.7712C32.1562 74.2097 31.8281 74.4289 31.3906 74.6481Z" fill="#96BEE1"/>
<path d="M44.7344 75.525C44.5156 75.525 44.5156 75.4154 44.5156 75.1962V58.3154C44.5156 58.0962 44.625 57.9866 44.7344 57.9866H47.0312C47.25 57.9866 47.25 58.0962 47.25 58.3154V65.3308C47.25 65.9885 47.25 66.6462 47.25 67.4135C47.25 68.1808 47.1406 68.9481 47.1406 69.6058C47.1406 70.2635 47.0312 70.9212 47.0312 71.3596C47.1406 70.9212 47.3594 70.3731 47.5781 69.825C47.7969 69.277 48.0156 68.6193 48.3438 67.852C48.6719 67.0846 49 66.3173 49.3281 65.3308L52.2812 58.3154C52.2812 58.2058 52.3906 58.0962 52.6094 58.0962H55.3437C55.5625 58.0962 55.6719 58.2058 55.6719 58.425V75.3058C55.6719 75.525 55.5625 75.6346 55.3437 75.6346H53.0469C52.8281 75.6346 52.7188 75.525 52.7188 75.3058V68.7289C52.7188 68.0712 52.7187 67.4135 52.8281 66.5366C52.8281 65.7693 52.9375 65.002 52.9375 64.2346C52.9375 63.4673 53.0469 62.8096 53.0469 62.2616H52.9375C52.8281 62.8096 52.6094 63.3577 52.3906 63.9058C52.1719 64.4539 51.9531 65.2212 51.625 65.9885C51.2969 66.7558 50.9688 67.6327 50.5312 68.7289L47.6875 75.4154C47.6875 75.525 47.5781 75.6346 47.3594 75.6346H44.7344V75.525Z" fill="#96BEE1"/>
<path d="M68.4688 79.252C68.25 79.252 68.25 79.1423 68.25 78.9231V75.525H58.8438C58.625 75.525 58.625 75.4154 58.625 75.1962V58.3154C58.625 58.0962 58.7344 57.9866 58.8438 57.9866H61.25C61.4688 57.9866 61.4688 58.0962 61.4688 58.3154V72.7846H66.6094V58.3154C66.6094 58.0962 66.7188 57.9866 66.8281 57.9866H69.2344C69.4531 57.9866 69.4531 58.0962 69.4531 58.3154V72.7846H70.6562C70.875 72.7846 70.9844 72.8943 70.9844 73.1135V78.9231C70.9844 79.1423 70.875 79.252 70.6562 79.252H68.4688Z" fill="#96BEE1"/>
<path d="M73.6094 75.525C73.3906 75.525 73.3906 75.4154 73.3906 75.1962V58.3154C73.3906 58.0962 73.5 57.9866 73.6094 57.9866H75.9063C76.125 57.9866 76.125 58.0962 76.125 58.3154V65.3308C76.125 65.9885 76.125 66.6462 76.125 67.4135C76.125 68.1808 76.0156 68.9481 76.0156 69.6058C76.0156 70.2635 75.9063 70.9212 75.9063 71.3596C76.0156 70.9212 76.2344 70.3731 76.4531 69.825C76.6719 69.277 76.8906 68.6193 77.2188 67.852C77.5469 67.0846 77.875 66.3173 78.2031 65.3308L81.1562 58.3154C81.1562 58.2058 81.2656 58.0962 81.4844 58.0962H84.2188C84.4375 58.0962 84.5469 58.2058 84.5469 58.425V75.3058C84.5469 75.525 84.4375 75.6346 84.2188 75.6346H81.9219C81.7031 75.6346 81.5938 75.525 81.5938 75.3058V68.7289C81.5938 68.0712 81.5937 67.4135 81.7031 66.5366C81.7031 65.7693 81.8125 65.002 81.8125 64.2346C81.8125 63.4673 81.9219 62.8096 81.9219 62.2616H81.8125C81.7031 62.8096 81.4844 63.3577 81.2656 63.9058C81.0469 64.4539 80.8281 65.2212 80.5 65.9885C80.1719 66.7558 79.8438 67.6327 79.4062 68.7289L76.5625 75.3058C76.5625 75.4154 76.4531 75.525 76.2344 75.525H73.6094Z" fill="#96BEE1"/>
<path d="M87.7187 75.525C87.5 75.525 87.5 75.4154 87.5 75.1962V58.3154C87.5 58.0962 87.6094 57.9866 87.7187 57.9866H90.125C90.3438 57.9866 90.3437 58.0962 90.3437 58.3154V65.2212H95.5938V58.3154C95.5938 58.0962 95.7031 57.9866 95.9219 57.9866H98.4375C98.6562 57.9866 98.7656 58.0962 98.7656 58.3154V75.1962C98.7656 75.4154 98.6562 75.525 98.4375 75.525H96.0313C95.8125 75.525 95.7031 75.4154 95.7031 75.1962V67.9616H90.4531V75.3058C90.4531 75.525 90.3438 75.6346 90.2344 75.6346H87.7187V75.525Z" fill="#96BEE1"/>
<path d="M107.078 75.7443C105.219 75.7443 103.797 75.1962 102.813 74.2096C101.828 73.2231 101.391 71.6885 101.391 69.6058V63.9058C101.391 61.8231 101.828 60.3981 102.813 59.3019C103.797 58.3154 105.219 57.7673 107.078 57.7673C108.391 57.7673 109.484 57.9866 110.359 58.5346C111.234 59.0827 111.891 59.7404 112.328 60.6173C112.766 61.4943 112.875 62.5904 112.656 63.9058C112.656 64.125 112.547 64.2346 112.438 64.2346H110.031C109.813 64.2346 109.703 64.125 109.813 63.9058C109.922 62.8096 109.703 61.9327 109.266 61.3846C108.828 60.8366 108.172 60.5077 107.188 60.5077C106.313 60.5077 105.547 60.8366 105.109 61.3846C104.672 61.9327 104.453 62.8096 104.453 64.0154V69.4962C104.453 70.702 104.672 71.5789 105.109 72.2366C105.547 72.7846 106.313 73.1135 107.188 73.1135C108.172 73.1135 108.828 72.7846 109.266 72.127C109.703 71.4693 109.813 70.7019 109.813 69.6058C109.813 69.3866 109.922 69.2769 110.031 69.2769H112.438C112.656 69.2769 112.766 69.3866 112.766 69.6058C112.875 71.4693 112.547 73.0039 111.563 74.1C110.469 75.1962 108.938 75.7443 107.078 75.7443Z" fill="#96BEE1"/>
<path d="M115.5 75.525C115.281 75.525 115.281 75.4154 115.281 75.1962V58.3154C115.281 58.0962 115.391 57.9866 115.5 57.9866H117.906C118.125 57.9866 118.125 58.0962 118.125 58.3154V65.4404H119.328L122.938 58.2058C122.938 58.0962 123.047 58.0962 123.047 58.0962C123.156 58.0962 123.156 58.0962 123.266 58.0962H125.891C126 58.0962 126.109 58.0962 126.109 58.2058C126.109 58.3154 126.109 58.3154 126.109 58.425L121.953 66.427L126.547 75.1962C126.547 75.3058 126.656 75.4154 126.547 75.4154C126.547 75.525 126.437 75.525 126.328 75.525H123.484C123.375 75.525 123.375 75.525 123.266 75.525L123.156 75.4154L119.328 68.1808H118.016V75.3058C118.016 75.525 117.906 75.6346 117.797 75.6346H115.5V75.525Z" fill="#96BEE1"/>
<path d="M128.953 75.525C128.734 75.525 128.734 75.4154 128.734 75.1962V58.3154C128.734 58.0962 128.844 57.9866 128.953 57.9866H131.25C131.469 57.9866 131.469 58.0962 131.469 58.3154V65.3308C131.469 65.9885 131.469 66.6462 131.469 67.4135C131.469 68.1808 131.359 68.9481 131.359 69.6058C131.359 70.2635 131.25 70.9212 131.25 71.3596C131.359 70.9212 131.578 70.3731 131.797 69.825C132.016 69.277 132.234 68.6193 132.562 67.852C132.891 67.0846 133.219 66.3173 133.547 65.3308L136.5 58.3154C136.5 58.2058 136.609 58.0962 136.828 58.0962H139.563C139.781 58.0962 139.891 58.2058 139.891 58.425V75.3058C139.891 75.525 139.781 75.6346 139.563 75.6346H137.266C137.047 75.6346 136.938 75.525 136.938 75.3058V68.7289C136.938 68.0712 136.938 67.4135 137.047 66.5366C137.047 65.7693 137.156 65.002 137.156 64.2346C137.156 63.4673 137.266 62.8096 137.266 62.2616H137.156C137.047 62.8096 136.828 63.3577 136.609 63.9058C136.391 64.4539 136.172 65.2212 135.844 65.9885C135.516 66.7558 135.188 67.6327 134.75 68.7289L131.906 75.4154C131.906 75.525 131.797 75.6346 131.578 75.6346H128.953V75.525Z" fill="#96BEE1"/>
<path d="M143.062 75.525C142.844 75.525 142.844 75.4154 142.844 75.1961V58.3154C142.844 58.0962 142.953 57.9865 143.062 57.9865H145.359C145.578 57.9865 145.578 58.0962 145.578 58.3154V65.3308C145.578 65.9885 145.578 66.6462 145.578 67.4135C145.578 68.1808 145.469 68.9481 145.469 69.6058C145.469 70.2635 145.359 70.9212 145.359 71.3596C145.469 70.9212 145.687 70.3731 145.906 69.825C146.125 69.2769 146.344 68.6192 146.672 67.8519C147 67.0846 147.328 66.3173 147.656 65.3308L150.609 58.3154C150.609 58.2058 150.719 58.0962 150.937 58.0962H153.672C153.891 58.0962 154 58.2058 154 58.425V75.3058C154 75.525 153.891 75.6346 153.672 75.6346H151.375C151.156 75.6346 151.047 75.525 151.047 75.3058V68.7288C151.047 68.0712 151.047 67.4135 151.156 66.5365C151.156 65.7692 151.266 65.0019 151.266 64.2346C151.266 63.4673 151.375 62.8096 151.375 62.2615H151.266C151.156 62.8096 150.937 63.3577 150.719 63.9058C150.5 64.4538 150.281 65.2212 149.953 65.9885C149.625 66.7558 149.297 67.6327 148.859 68.7288L146.016 75.4154C146.016 75.525 145.906 75.6346 145.687 75.6346H143.062V75.525ZM148.422 56.5615C147.766 56.5615 147.109 56.4519 146.672 56.2327C146.125 56.0135 145.797 55.7942 145.578 55.575C145.469 55.4654 145.469 55.3558 145.469 55.2462V53.7115C145.469 53.4923 145.578 53.3827 145.797 53.6019C146.125 53.8212 146.562 54.0404 147 54.2596C147.437 54.4788 147.984 54.5885 148.531 54.5885C149.078 54.5885 149.625 54.4788 150.062 54.2596C150.5 54.0404 150.937 53.8212 151.266 53.6019C151.484 53.4923 151.594 53.4923 151.594 53.7115V55.2462C151.594 55.3558 151.594 55.4654 151.484 55.575C151.266 55.7942 150.828 56.0135 150.391 56.2327C149.625 56.4519 149.078 56.5615 148.422 56.5615Z" fill="#96BEE1"/>
<path d="M2.40625 102.271C2.29688 102.271 2.29688 102.271 2.1875 102.162C2.1875 102.052 2.1875 102.052 2.1875 101.943L4.375 96.3521L0 85.1714C0 85.0617 0 84.9521 0 84.9521C0 84.9521 0.109375 84.8425 0.21875 84.8425H3.0625C3.17188 84.8425 3.28125 84.9521 3.39062 85.0618L5.14062 90.2137C5.25 90.7618 5.46875 91.2002 5.57812 91.6387C5.6875 92.0771 5.79688 92.6252 6.01562 93.1733C6.125 92.6252 6.34375 92.1868 6.45312 91.6387C6.5625 91.2002 6.78125 90.6521 6.89062 90.2137L8.75 84.9521C8.75 84.8425 8.85938 84.7329 9.07812 84.7329H11.9219C12.0312 84.7329 12.0312 84.7329 12.1406 84.8425C12.25 84.9521 12.1406 84.9521 12.1406 85.0618L5.35938 102.052C5.35938 102.162 5.25 102.271 5.03125 102.271H2.40625Z" fill="#96BEE1"/>
<path d="M13.5625 102.271C13.3437 102.271 13.3438 102.162 13.3438 101.943V85.0618C13.3438 84.8425 13.4531 84.7329 13.5625 84.7329H15.9688C16.1875 84.7329 16.1875 84.8425 16.1875 85.0618V91.9675H21.4375V85.0618C21.4375 84.8425 21.5469 84.7329 21.7656 84.7329H24.1719C24.3906 84.7329 24.5 84.8425 24.5 85.0618V101.943C24.5 102.162 24.3906 102.271 24.1719 102.271H21.875C21.6562 102.271 21.5469 102.162 21.5469 101.943V94.5983H16.2969V101.943C16.2969 102.162 16.1875 102.271 16.0781 102.271H13.5625Z" fill="#96BEE1"/>
<path d="M26.9063 102.271C26.6875 102.271 26.6875 102.162 26.6875 101.943V85.0618C26.6875 84.8425 26.7969 84.7329 26.9063 84.7329H29.2031C29.4219 84.7329 29.4219 84.8425 29.4219 85.0618V92.0771C29.4219 92.7348 29.4219 93.3925 29.4219 94.1598C29.4219 94.9271 29.3125 95.6944 29.3125 96.3521C29.3125 97.0098 29.2031 97.6675 29.2031 98.106C29.3125 97.6675 29.5313 97.1194 29.75 96.5714C29.9688 96.0233 30.1875 95.3656 30.5156 94.5983C30.8438 93.831 31.1719 93.0637 31.5 92.0771L34.4531 85.0618C34.4531 84.9521 34.5625 84.8425 34.7812 84.8425H37.5156C37.7344 84.8425 37.8437 84.9521 37.8437 85.1714V102.052C37.8437 102.271 37.7344 102.381 37.5156 102.381H35.2188C35 102.381 34.8906 102.271 34.8906 102.052V95.4752C34.8906 94.8175 34.8906 94.1598 35 93.2829C35 92.5156 35.1094 91.7483 35.1094 90.981C35.1094 90.2137 35.2188 89.556 35.2188 89.0079H35.1094C35 89.556 34.7813 90.1041 34.5625 90.6521C34.3438 91.2002 34.125 91.9675 33.7969 92.7348C33.4688 93.5021 33.1406 94.3791 32.7031 95.4752L29.8594 102.162C29.8594 102.271 29.75 102.381 29.5313 102.381H26.9063V102.271Z" fill="#96BEE1"/>
<path d="M40.25 102.271C40.0312 102.271 39.9219 102.162 39.9219 101.943V85.0618C39.9219 84.8425 40.0312 84.7329 40.25 84.7329H44.4062C46.1562 84.7329 47.5781 85.0618 48.4531 85.8291C49.3281 86.5964 49.7656 87.5829 49.7656 89.1175C49.7656 90.1041 49.5469 90.8714 49.2188 91.5291C48.8906 92.1868 48.2344 92.6252 47.4688 93.0637C48.4531 93.2829 49.2188 93.831 49.6563 94.4887C50.2031 95.1464 50.4219 96.1329 50.4219 97.2291C50.4219 98.9829 49.9844 100.189 49 101.066C48.0156 101.833 46.5937 102.271 44.625 102.271H40.25ZM42.875 92.1868H44.4062C45.1719 92.1868 45.8281 91.9675 46.1563 91.5291C46.4844 91.0906 46.7031 90.5425 46.7031 89.6656C46.7031 88.8983 46.4844 88.2406 46.1563 87.9117C45.7188 87.5829 45.1719 87.3637 44.2969 87.3637H42.9844V92.1868H42.875ZM42.875 99.7502H44.5156C45.5 99.7502 46.1562 99.531 46.5937 99.0925C47.0312 98.6541 47.25 97.9964 47.25 97.0098C47.25 96.1329 47.0312 95.4752 46.5937 95.0367C46.1562 94.5983 45.5 94.3791 44.5156 94.3791H42.875V99.7502Z" fill="#96BEE1"/>
<path d="M52.1719 102.271C51.9531 102.271 51.9531 102.162 51.9531 101.943V85.0618C51.9531 84.8425 52.0625 84.7329 52.1719 84.7329H60.4844C60.7031 84.7329 60.7031 84.8425 60.7031 85.0618V87.1444C60.7031 87.3637 60.5937 87.4733 60.4844 87.4733H54.9063V92.0771H60.0469C60.2656 92.0771 60.2656 92.1868 60.2656 92.406V94.3791C60.2656 94.5983 60.1563 94.7079 60.0469 94.7079H54.9063V99.6406H60.4844C60.7031 99.6406 60.7031 99.7502 60.7031 99.9694V102.052C60.7031 102.271 60.5937 102.381 60.4844 102.381H52.1719V102.271Z" fill="#96BEE1"/>
<path d="M62.7813 102.271C62.5625 102.271 62.5625 102.162 62.5625 101.943V85.0618C62.5625 84.8425 62.6719 84.7329 62.7813 84.7329H66.7187C68.6875 84.7329 70 85.1714 70.9844 86.1579C71.9688 87.1444 72.2969 88.5694 72.2969 90.4329C72.2969 92.2964 71.8594 93.7214 70.875 94.5983C70 95.5848 68.5781 96.0233 66.7187 96.0233H65.4062V101.943C65.4062 102.162 65.2969 102.271 65.1875 102.271H62.7813ZM65.5156 93.5021H66.7187C67.5937 93.5021 68.25 93.2829 68.6875 92.7348C69.125 92.2964 69.3438 91.5291 69.3438 90.5425C69.3438 89.4464 69.125 88.6791 68.6875 88.2406C68.25 87.8021 67.5937 87.4733 66.7187 87.4733H65.5156V93.5021Z" fill="#96BEE1"/>
<path d="M79.5156 102.491C77.6562 102.491 76.2344 101.943 75.25 100.956C74.2656 99.9694 73.8281 98.4348 73.8281 96.3521V90.6521C73.8281 88.5694 74.2656 87.1444 75.25 86.0483C76.2344 85.0618 77.6562 84.5137 79.5156 84.5137C80.8281 84.5137 81.9219 84.7329 82.7969 85.281C83.6719 85.8291 84.3281 86.4867 84.7656 87.3637C85.2031 88.2406 85.3125 89.3367 85.0938 90.6521C85.0938 90.8714 84.9844 90.981 84.875 90.981H82.4688C82.25 90.981 82.1406 90.8714 82.25 90.6521C82.3594 89.556 82.1406 88.6791 81.7031 88.131C81.2656 87.5829 80.6094 87.2541 79.625 87.2541C78.75 87.2541 77.9844 87.5829 77.5469 88.131C77.1094 88.6791 76.8906 89.556 76.8906 90.7618V96.2425C76.8906 97.4483 77.1094 98.3252 77.5469 98.9829C77.9844 99.531 78.75 99.8598 79.625 99.8598C80.6094 99.8598 81.2656 99.531 81.7031 98.8733C82.1406 98.2156 82.25 97.4483 82.25 96.3521C82.25 96.1329 82.3594 96.0233 82.4688 96.0233H84.875C85.0937 96.0233 85.2031 96.1329 85.2031 96.3521C85.3125 98.2156 84.9844 99.7502 84 100.846C82.9063 101.943 81.4844 102.491 79.5156 102.491Z" fill="#96BEE1"/>
<path d="M87.1719 102.271C86.9531 102.271 86.9531 102.162 86.9531 101.943V85.0618C86.9531 84.8425 87.0625 84.7329 87.1719 84.7329H89.4688C89.6875 84.7329 89.6875 84.8425 89.6875 85.0618V92.0771C89.6875 92.7348 89.6875 93.3925 89.6875 94.1598C89.6875 94.9271 89.5781 95.6944 89.5781 96.3521C89.5781 97.0098 89.4688 97.6675 89.4688 98.106C89.5781 97.6675 89.7969 97.1194 90.0156 96.5714C90.2344 96.0233 90.4531 95.3656 90.7812 94.5983C91.1094 93.831 91.4375 93.0637 91.7656 92.0771L94.7187 85.0618C94.7187 84.9521 94.8281 84.8425 95.0469 84.8425H97.7813C98 84.8425 98.1094 84.9521 98.1094 85.1714V102.052C98.1094 102.271 98 102.381 97.7813 102.381H95.4844C95.2656 102.381 95.1562 102.271 95.1562 102.052V95.4752C95.1562 94.8175 95.1562 94.1598 95.2656 93.2829C95.2656 92.5156 95.375 91.7483 95.375 90.981C95.375 90.2137 95.4844 89.556 95.4844 89.0079H95.375C95.2656 89.556 95.0469 90.1041 94.8281 90.6521C94.6094 91.2002 94.3906 91.9675 94.0625 92.7348C93.7344 93.5021 93.4062 94.3791 92.9688 95.4752L90.125 102.162C90.125 102.271 90.0156 102.381 89.7969 102.381H87.1719V102.271Z" fill="#96BEE1"/>
<path d="M103.578 102.271C103.359 102.271 103.359 102.162 103.359 101.943V87.4733H99.8594C99.6406 87.4733 99.6406 87.3637 99.6406 87.1444V85.0618C99.6406 84.8425 99.75 84.7329 99.8594 84.7329H109.813C110.031 84.7329 110.031 84.8425 110.031 85.0618V87.1444C110.031 87.3637 109.922 87.4733 109.813 87.4733H106.312V101.943C106.312 102.162 106.203 102.271 106.094 102.271H103.578Z" fill="#96BEE1"/>
<path d="M111.781 102.271C111.562 102.271 111.562 102.162 111.562 101.943V85.0618C111.562 84.8425 111.672 84.7329 111.781 84.7329H120.094C120.313 84.7329 120.312 84.8425 120.312 85.0618V87.1444C120.312 87.3637 120.203 87.4733 120.094 87.4733H114.516V92.0771H119.656C119.875 92.0771 119.875 92.1868 119.875 92.406V94.3791C119.875 94.5983 119.766 94.7079 119.656 94.7079H114.516V99.6406H120.094C120.313 99.6406 120.312 99.7502 120.312 99.9694V102.052C120.312 102.271 120.203 102.381 120.094 102.381H111.781V102.271Z" fill="#96BEE1"/>
<path d="M125.672 102.271C125.453 102.271 125.453 102.162 125.453 101.943V87.4733H121.953C121.734 87.4733 121.734 87.3637 121.734 87.1444V85.0618C121.734 84.8425 121.844 84.7329 121.953 84.7329H131.906C132.125 84.7329 132.125 84.8425 132.125 85.0618V87.1444C132.125 87.3637 132.016 87.4733 131.906 87.4733H128.406V101.943C128.406 102.162 128.297 102.271 128.187 102.271H125.672Z" fill="#96BEE1"/>
</g>
<defs>
<clipPath id="clip0_297_1489">
<rect width="210" height="114" fill="white"/>
</clipPath>
</defs>
</svg>
