<svg width="24" height="20" viewBox="0 0 24 20" fill="none" xmlns="http://www.w3.org/2000/svg">
<path d="M23.8001 1.9C23.5001 5.3 22.1001 13.6 21.4001 17.4C21.1001 19 20.5001 19.6 19.9001 19.6C18.7001 19.7 17.7001 18.8 16.5001 18C14.6001 16.8 13.5001 16 11.7001 14.8C9.60007 13.4 11.0001 12.6 12.2001 11.4C12.5001 11.1 18.0001 6.1 18.1001 5.6C18.1001 5.5 18.1001 5.3 18.0001 5.2C17.9001 5.1 17.7001 5.1 17.6001 5.2C17.4001 5.2 14.4001 7.2 8.50008 11.2C7.60008 11.8 6.90007 12.1 6.20007 12.1C5.40007 12.1 4.00008 11.7 2.90008 11.3C1.60008 10.9 0.500074 10.6 0.600074 9.9C0.600074 9.5 1.20007 9.1 2.20007 8.7C8.50007 6 12.6001 4.2 14.7001 3.3C20.7001 0.800002 21.9001 0.400002 22.7001 0.400002C22.9001 0.400002 23.3001 0.400001 23.5001 0.600001C23.7001 0.800001 23.8001 1 23.8001 1.2C23.8001 1.2 23.8001 1.6 23.8001 1.9Z" fill="#96BEE1"/>
</svg>
