<svg width="26" height="19" viewBox="0 0 26 19" fill="none" xmlns="http://www.w3.org/2000/svg">
<path d="M25.1 3.2C24.8 2.1 23.9 1.2 22.8 0.900002C20.8 0.400002 12.8 0.400002 12.8 0.400002C12.8 0.400002 4.8 0.400002 2.8 0.900002C1.7 1.2 0.8 2.1 0.5 3.2C0 5.2 0 9.4 0 9.4C0 9.4 0 13.6 0.5 15.6C0.8 16.7 1.7 17.6 2.8 17.9C4.8 18.4 12.8 18.4 12.8 18.4C12.8 18.4 20.8 18.4 22.8 17.9C23.9 17.6 24.8 16.7 25.1 15.6C25.6 13.6 25.6 9.4 25.6 9.4C25.6 9.4 25.6 5.2 25.1 3.2ZM10.2 13.2V5.5L16.9 9.3L10.2 13.2Z" fill="#96BEE1"/>
</svg>
