<svg width="16" height="28" viewBox="0 0 16 28" fill="none" xmlns="http://www.w3.org/2000/svg">
<path d="M8.00009 14.5C11.8001 14.5 14.9001 11.4 14.9001 7.6C14.9001 3.8 11.8001 0.699997 8.00009 0.699997C4.20009 0.699997 1.1001 3.8 1.1001 7.6C1.1001 11.4 4.20009 14.5 8.00009 14.5ZM8.00009 4.7C9.60009 4.7 10.9001 6 10.9001 7.6C10.9001 9.2 9.60009 10.5 8.00009 10.5C6.40009 10.5 5.1001 9.2 5.1001 7.6C5.2001 6 6.40009 4.7 8.00009 4.7Z" fill="#96BEE1"/>
<path d="M15.5 15.6C14.9 14.7 13.7 14.4 12.7 15C9.90001 16.8 6.19999 16.8 3.39999 15C2.49999 14.4 1.2 14.7 0.6 15.6C-8.9407e-08 16.5 0.299991 17.8 1.19999 18.4C2.39999 19.2 3.79999 19.7 5.19999 20.1L1.3 24C0.499997 24.8 0.499997 26.1 1.3 26.9C1.7 27.3 2.19999 27.5 2.69999 27.5C3.19999 27.5 3.7 27.3 4.1 26.9L7.99999 23L11.8 26.8C12.6 27.6 13.9 27.6 14.7 26.8C15.5 26 15.5 24.7 14.7 23.9L10.8 20C12.2 19.7 13.5 19.1 14.8 18.3C15.8 17.8 16.1 16.6 15.5 15.6Z" fill="#96BEE1"/>
</svg>
