<svg width="30" height="26" viewBox="0 0 30 26" fill="none" xmlns="http://www.w3.org/2000/svg">
<path d="M21.5 18C22.1 17.2 22.3999 15.8 22.3999 14V12.6C22.3999 11.5 22.3 10.7 22.1 10.1C21.9 9.5 21.6 8.9 21.1 8.4C20.6 7.9 20.0999 7.6 19.3999 7.4C18.6999 7.2 17.8999 7.1 16.8999 7.1H0.699951V25.7H5.29996V19.7H13.8L17.8 25.7H23L18.6 19.6C20.2 19.3 20.9 18.8 21.5 18ZM17.8 14.1C17.8 14.7 17.6999 15 17.3999 15.2C17.1999 15.4 16.7 15.5 16.1 15.5H5.19995V11.2H16.1C16.7 11.2 17.1999 11.3 17.3999 11.5C17.5999 11.7 17.8 12.1 17.8 12.6V14.1Z" fill="#96BEE1"/>
<path d="M26.5 0C24.5 0 23 1.6 23 3.5C23 5.5 24.6 7 26.5 7C28.5 7 30 5.4 30 3.5C30.1 1.6 28.5 0 26.5 0Z" fill="#96BEE1"/>
</svg>
